<?xml version="1.0" encoding="utf-8"?>
<!-- Generator: Adobe Illustrator 24.0.2, SVG Export Plug-In . SVG Version: 6.00 Build 0)  -->
<svg version="1.1" id="Layer_1" xmlns="http://www.w3.org/2000/svg" xmlns:xlink="http://www.w3.org/1999/xlink" x="0px" y="0px"
	 viewBox="0 0 117.63 109.28" style="enable-background:new 0 0 117.63 109.28;" xml:space="preserve">
<style type="text/css">
	.st0{fill:#D6B035;}
</style>
<g>
	<path class="st0" d="M42.81,42.71c3.38-1.77,6.96-2.85,10.73-3.25c3.45-0.37,6.89-0.23,10.29,0.55c1.31,0.3,2.6,0.67,3.95,1.02
		c0.03-0.19,0.08-0.37,0.1-0.56c0.27-2.75,0.88-5.41,2.02-7.93c1.63-3.6,3.96-6.68,7.08-9.12c2.02-1.59,4.2-2.95,6.68-3.72
		c1.55-0.48,3.14-0.84,4.71-1.27c0.22-0.06,0.42-0.22,0.62-0.33c-0.17-0.13-0.32-0.33-0.52-0.39c-1.98-0.69-3.95-1.4-5.94-2.04
		c-3.23-1.05-6.58-1.58-9.94-1.89c-4.18-0.39-8.39-0.43-12.58,0.13c-2.82,0.38-5.63,0.8-8.33,1.76c-0.42,0.15-0.88,0.2-1.35,0.3
		C50.57,9.54,49.77,4.86,48.37,0c-0.22,0-0.45,0-0.67,0c-1.5,0.46-3.02,0.85-4.5,1.38c-3.09,1.11-6.02,2.56-8.85,4.24
		c-5.48,3.25-10.46,7.11-14.82,11.78c-3.9,4.17-7.34,8.68-10.22,13.61C5.06,38.28,1.89,45.98,0,54.33c0.98,0.47,1.91,0.93,2.85,1.36
		c1.27,0.58,2.53,1.23,3.85,1.68c2.35,0.8,4.73,1.54,7.13,2.19c1.89,0.52,3.81,1,5.75,1.3c2.3,0.35,4.64,0.44,6.95,0.74
		c0.91,0.12,1.3-0.16,1.55-1.01c1.14-3.89,3.07-7.38,5.64-10.5C36.24,47.02,39.28,44.56,42.81,42.71z"/>
	<path class="st0" d="M117.27,55.77c-0.31-3.03-0.92-6.02-1.93-8.87c-0.95-2.65-2.14-5.23-3.38-7.77
		c-2.17-4.43-5.21-8.25-8.73-11.68c-1.53-1.49-3.21-2.83-4.8-4.22l-1.23-0.88c-0.53-0.34-0.91-0.46-1.69-0.66
		c-2.61-0.65-5.21-0.39-7.74,0.12c-3.52,0.69-6.71,2.25-9.41,4.65c-4.58,4.07-7.03,9.17-7.24,15.33c-0.02,0.57,0.17,0.84,0.66,1.08
		c0.69,0.33,1.36,0.72,2,1.14c3.03,1.99,5.64,4.41,7.79,7.34c1.96,2.67,3.39,5.6,4.24,8.77c0.75,2.81,1.15,5.71,0.78,8.65
		c-0.02,0.14,0.07,0.3,0.11,0.43c1.44-0.33,2.81-0.74,4.21-0.94c3.95-0.56,7.76,0.01,11.44,1.59c3.46,1.49,6.32,3.74,8.58,6.73
		c0.84,1.11,1.46,2.39,2.19,3.58c0.11,0.18,0.26,0.35,0.44,0.45c0.05,0.03,0.31-0.13,0.36-0.25c0.37-0.89,0.77-1.77,1.04-2.69
		c0.58-1.98,1.19-3.95,1.61-5.97c0.42-2.02,0.62-4.09,0.92-6.14c0.07-0.49,0.11-0.99,0.17-1.48c0-1.56,0-3.12,0-4.68
		C117.51,58.18,117.39,56.98,117.27,55.77z"/>
	<path class="st0" d="M39.76,75.65c0.71-0.59,1.23-1.14,0.93-2.16c-0.15-0.52-0.17-1.09-0.2-1.64c-0.17-3.61,0.4-7.06,2.12-10.3
		c2.72-5.14,6.92-8.19,12.7-8.84c3.33-0.38,6.51,0.34,9.38,2.17c4.69,2.98,6.79,8.56,5.29,13.66c-1.1,3.75-4.67,7.39-9.45,6.92
		c-2.72-0.27-5.31-1.98-5.94-4.84c-0.56-2.59,1.22-5.08,3.91-4.93c1.72,0.09,3.32,1.36,3.5,3.81c0.12,0.11,0.24,0.22,0.36,0.33
		c0.07-0.21,0.11-0.43,0.2-0.63c1.04-2.2,1-4.53-0.63-6.54c-1.59-1.95-3.77-2.52-6.19-2.33c-2.51,0.2-4.5,1.4-5.9,3.45
		c-1.66,2.44-2.22,5.14-1.7,8.09c0.8,4.56,3.43,7.68,7.53,9.57c3.23,1.48,6.62,1.85,10.14,1.09c3.87-0.84,7.01-2.81,9.53-5.82
		c2.1-2.5,3.37-5.39,4.05-8.58c0.71-3.29,0.71-6.58-0.16-9.81c-1.1-4.07-3.36-7.47-6.58-10.19c-3.52-2.97-7.57-4.76-12.17-5.38
		c-3.59-0.49-7.12-0.29-10.59,0.61c-4.48,1.17-8.44,3.36-11.78,6.6c-3.11,3.02-5.44,6.54-7.07,10.56c-1.08,2.66-1.81,5.41-2.15,8.25
		c-0.21,1.79-0.21,3.6-0.27,5.41c-0.01,0.24,0.12,0.54,0.28,0.73C31.66,78.03,36.57,78.33,39.76,75.65z"/>
	<path class="st0" d="M107.54,77.46c-2.81-3.21-6.84-5.46-11.1-5.98c-2.61-0.32-5.65-0.2-8.15,0.64c-2.64,0.9-2.52,1.58-3.49,4.16
		c-3,7.94-9.44,12.75-17.34,15.05c3.79,5.86,3.48,12.35-0.65,17.94c10.31,1.28,21.98-2.58,30.43-8.41
		c4.31-2.97,8.12-6.74,11.21-10.96c1.15-1.57,2.99-3.48,2.88-5.52C111.21,82.06,109.01,79.13,107.54,77.46z"/>
	<path class="st0" d="M63.85,92.09c-0.21-0.22-0.63-0.35-0.96-0.36c-3.36-0.08-6.57-0.76-9.65-2.15c-4.93-2.23-8.63-5.72-10.98-10.6
		c-0.4-0.82-0.43-0.81-1.21-0.29c-3.09,2.08-6.41,2.59-9.96,1.39c-0.57-0.19-1.12-0.43-1.79-0.69c0.03,0.32,0.02,0.46,0.05,0.59
		c0.68,3.36,1.88,6.54,3.56,9.52c2.16,3.83,4.92,7.18,8.29,10.03c2.56,2.16,5.34,4,8.34,5.46c3.77,1.83,7.75,3.06,11.87,3.82
		c0.73,0.13,1.27-0.01,1.81-0.5c2.05-1.88,3.34-4.15,3.69-6.94C67.37,97.79,66.33,94.7,63.85,92.09z"/>
</g>
</svg>
