<?xml version="1.0" encoding="utf-8"?>
<!-- Generator: Adobe Illustrator 24.2.3, SVG Export Plug-In . SVG Version: 6.00 Build 0)  -->
<svg version="1.1" id="Layer_1" xmlns="http://www.w3.org/2000/svg" xmlns:xlink="http://www.w3.org/1999/xlink" x="0px" y="0px"
	 viewBox="0 0 207.53 95.29" style="enable-background:new 0 0 207.53 95.29;" xml:space="preserve">
<style type="text/css">
	.st0{fill:#FFFFFF;}
</style>
<g>
	<g>
		<path class="st0" d="M45.51,69.31c-0.39,0.08-0.79,0.22-1.18,0.22c-3.4,0.02-6.81-0.09-10.21,0.06c-1.42,0.06-2.03-0.47-2.55-1.65
			c-2.45-5.52-4.95-11.02-7.46-16.52c-2.09-4.58-4.25-9.14-6.35-13.72c-2.36-5.15-4.68-10.32-7.04-15.48
			c-1.92-4.19-3.87-8.35-5.78-12.54c-0.07-0.15,0.2-0.65,0.31-0.65c3.64,0.03,7.32-0.19,10.91,0.25c3.5,0.42,6.04,2.67,7.57,5.88
			c2.11,4.41,4.14,8.86,6.21,13.29c1.92,4.11,3.87,8.2,5.79,12.31c1.34,2.88,2.66,5.77,4.02,8.71c1.43-2.87,2.83-5.67,4.2-8.48
			c2.04-4.17,4.14-8.32,6.09-12.54c1.73-3.75,3.75-7.29,6.68-10.23c4.65-4.67,10.19-7.66,16.73-8.76c5.14-0.86,10.18-0.5,15.12,1.2
			c5.22,1.79,9.62,4.79,13.3,8.88c1.28-1.19,2.51-2.46,3.86-3.56c2.59-2.11,5.38-3.85,8.62-4.92c3.84-1.28,7.69-2.15,11.77-2.01
			c6.9,0.24,12.98,2.59,18.32,6.89c4.56,3.67,7.89,8.29,9.66,13.85c0.91,2.84,1.4,5.9,1.54,8.88c0.26,5.52,1.91,10.26,6.46,13.64
			c9.14,6.79,21.92,2.29,24.93-8.73c2.38-8.73-3.72-18.17-12.69-19.59c-6.62-1.05-12.81,1.81-16.36,7.57
			c-0.14,0.22-0.3,0.42-0.55,0.79c-0.44-1.38-0.8-2.6-1.22-3.8c-1.27-3.62-3.15-6.88-5.58-9.85c-0.19-0.24-0.13-0.99,0.09-1.21
			c3.39-3.3,7.36-5.71,11.9-6.98c10.31-2.89,19.85-1.43,28.25,5.52c1.76,1.46,3.64,2.92,4.97,4.74c2.81,3.83,4.8,8.13,5.67,12.84
			c1.88,10.1-0.6,19.04-7.46,26.66c-4.7,5.23-10.64,8.49-17.58,9.49c-10.32,1.48-19.33-1.43-26.73-8.93
			c-5.08-5.16-7.76-11.42-8.56-18.58c-0.38-3.37-0.32-6.82-2.08-9.94c-2.91-5.14-7.17-8.14-13.1-8.6
			c-6.84-0.54-13.25,3.78-15.53,9.9c-0.79,2.12-1.15,4.49-1.23,6.76c-0.17,5.27-0.06,10.54-0.06,15.82c0,4.06-0.13,8.14,0.06,12.19
			c0.08,1.81-0.8,1.72-1.94,1.56c-4.64-0.67-8.4-2.9-10.66-7c-1.12-2.03-1.89-4.48-2.01-6.78c-0.29-5.42-0.09-10.86-0.09-16.29
			c0-6.68-3.83-12.47-9.99-15.08c-7.54-3.2-16.46,0.11-20.01,7.49c-2.71,5.63-5.35,11.29-8,16.95c-3.08,6.57-6.12,13.16-9.25,19.7
			c-0.19,0.4-1.05,0.48-1.6,0.71C45.65,69.51,45.58,69.41,45.51,69.31z"/>
	</g>
</g>
<g>
	<path class="st0" d="M110.78,79.24l-4.9,0l0-2.89l13.36,0l0,2.89l-4.9,0l0,12.44l-3.55,0L110.78,79.24z"/>
	<path class="st0" d="M132.51,79.91l0,11.78l-3.24,0l0-1.4c-0.9,1.03-2.21,1.58-3.66,1.58c-2.96,0-5.04-1.67-5.03-5.3l0-6.66l3.42,0
		l0,6.15c0,1.97,0.88,2.85,2.39,2.85c1.58,0,2.72-1.01,2.72-3.17l0-5.82L132.51,79.91z"/>
	<path class="st0" d="M143,79.73l0,3.15c-0.28-0.02-0.5-0.04-0.77-0.04c-1.88,0-3.13,1.03-3.13,3.28l0,5.56l-3.42,0l0-11.78l3.26,0
		l0,1.55C139.78,80.32,141.18,79.73,143,79.73z"/>
	<path class="st0" d="M144.62,76.36c0-1.07,0.85-1.91,2.12-1.91c1.27,0,2.12,0.79,2.12,1.84c0,1.14-0.85,1.97-2.13,1.97
		C145.48,78.27,144.62,77.43,144.62,76.36z M145.04,79.91l3.42,0l0,11.78l-3.42,0L145.04,79.91z"/>
	<path class="st0" d="M150.49,90.6l1.14-2.45c1.05,0.68,2.65,1.14,4.09,1.14c1.58,0,2.17-0.42,2.17-1.07c0-1.93-7.12,0.04-7.11-4.67
		c0-2.23,2.02-3.81,5.45-3.81c1.62,0,3.42,0.37,4.53,1.03l-1.14,2.43c-1.16-0.66-2.32-0.88-3.39-0.88c-1.53,0-2.19,0.48-2.19,1.09
		c0,2.01,7.12,0.07,7.11,4.71c0,2.19-2.04,3.74-5.56,3.74C153.6,91.87,151.58,91.32,150.49,90.6z"/>
	<path class="st0" d="M183.16,84.96l0,6.74l-3.42,0l0-6.22c0-1.91-0.85-2.78-2.23-2.78c-1.53,0-2.61,0.99-2.61,3.09l0,5.91l-3.42,0
		l0-6.22c0-1.91-0.81-2.78-2.23-2.78c-1.51,0-2.58,0.98-2.58,3.09l0,5.91l-3.42,0l0-11.78l3.26,0l0,1.36
		c0.88-1.01,2.19-1.53,3.7-1.53c1.64,0,3.04,0.64,3.87,1.93c0.94-1.2,2.48-1.93,4.25-1.92C181.15,79.74,183.16,81.37,183.16,84.96z"
		/>
	<path class="st0" d="M185.49,85.81c0-3.55,2.74-6.06,6.48-6.06c3.75,0,6.46,2.52,6.46,6.07c0,3.55-2.72,6.06-6.46,6.06
		C188.22,91.88,185.49,89.36,185.49,85.81z M194.97,85.81c0-2.04-1.29-3.26-3-3.26c-1.71,0-3.02,1.22-3.02,3.26
		c0,2.04,1.31,3.26,3.02,3.26C193.68,89.08,194.97,87.85,194.97,85.81z"/>
</g>
</svg>
