<?xml version="1.0" encoding="utf-8"?>
<!-- Generator: Adobe Illustrator 24.0.2, SVG Export Plug-In . SVG Version: 6.00 Build 0)  -->
<svg version="1.1" id="Layer_1" xmlns="http://www.w3.org/2000/svg" xmlns:xlink="http://www.w3.org/1999/xlink" x="0px" y="0px"
	 viewBox="0 0 145.28 134.97" style="enable-background:new 0 0 145.28 134.97;" xml:space="preserve">
<style type="text/css">
	.st0{fill:#FFFFFF;}
</style>
<g>
	<path class="st0" d="M52.88,52.75c4.17-2.18,8.6-3.52,13.26-4.02c4.26-0.46,8.51-0.28,12.71,0.68c1.62,0.37,3.21,0.83,4.88,1.26
		c0.04-0.23,0.1-0.46,0.12-0.69c0.34-3.39,1.09-6.69,2.5-9.79c2.01-4.44,4.89-8.25,8.74-11.27c2.5-1.96,5.18-3.65,8.25-4.6
		c1.92-0.59,3.88-1.04,5.82-1.57c0.27-0.08,0.51-0.27,0.77-0.41c-0.21-0.17-0.4-0.4-0.64-0.49c-2.44-0.86-4.88-1.73-7.34-2.52
		c-3.99-1.29-8.13-1.96-12.27-2.34c-5.17-0.48-10.36-0.53-15.54,0.16c-3.48,0.47-6.95,0.98-10.29,2.17
		c-0.52,0.19-1.09,0.25-1.66,0.37C62.46,11.78,61.47,6,59.74,0c-0.28,0-0.55,0-0.83,0c-1.85,0.56-3.73,1.05-5.55,1.71
		c-3.82,1.38-7.44,3.17-10.93,5.24c-6.77,4.01-12.92,8.78-18.3,14.54C19.3,26.64,15.06,32.21,11.5,38.3
		C6.25,47.28,2.33,56.79,0,67.1c1.21,0.58,2.36,1.15,3.52,1.68c1.57,0.72,3.12,1.52,4.75,2.08c2.9,0.99,5.84,1.9,8.8,2.71
		c2.34,0.64,4.71,1.24,7.1,1.6c2.84,0.43,5.73,0.54,8.58,0.91c1.13,0.15,1.61-0.2,1.91-1.25c1.41-4.81,3.79-9.11,6.96-12.96
		C44.75,58.07,48.51,55.04,52.88,52.75z"/>
	<path class="st0" d="M144.83,68.88c-0.38-3.74-1.13-7.43-2.39-10.96c-1.17-3.28-2.64-6.46-4.18-9.59
		c-2.68-5.47-6.43-10.19-10.78-14.43c-1.89-1.84-3.97-3.49-5.93-5.21l-1.52-1.09c-0.66-0.42-1.13-0.57-2.09-0.81
		c-3.22-0.8-6.43-0.48-9.56,0.14c-4.34,0.86-8.28,2.78-11.62,5.74c-5.66,5.03-8.68,11.33-8.94,18.93c-0.02,0.71,0.21,1.04,0.81,1.33
		c0.85,0.41,1.68,0.89,2.47,1.41c3.74,2.46,6.97,5.44,9.62,9.07c2.41,3.3,4.19,6.92,5.24,10.83c0.93,3.47,1.42,7.05,0.97,10.68
		c-0.02,0.18,0.09,0.37,0.13,0.53c1.78-0.41,3.47-0.92,5.2-1.16c4.88-0.7,9.58,0.01,14.12,1.96c4.28,1.84,7.81,4.61,10.59,8.31
		c1.03,1.37,1.8,2.95,2.71,4.42c0.13,0.22,0.32,0.43,0.54,0.56c0.07,0.04,0.38-0.16,0.44-0.31c0.45-1.1,0.95-2.19,1.28-3.33
		c0.72-2.44,1.47-4.88,1.99-7.37c0.52-2.5,0.77-5.05,1.13-7.58c0.09-0.61,0.14-1.22,0.21-1.83c0-1.93,0-3.86,0-5.79
		C145.13,71.86,144.98,70.37,144.83,68.88z"/>
	<path class="st0" d="M49.11,93.44c0.87-0.73,1.51-1.41,1.15-2.66c-0.19-0.65-0.21-1.35-0.24-2.03c-0.21-4.46,0.5-8.73,2.62-12.72
		c3.36-6.35,8.55-10.11,15.69-10.92c4.11-0.47,8.03,0.42,11.58,2.68c5.79,3.68,8.39,10.57,6.54,16.88
		c-1.36,4.63-5.77,9.12-11.68,8.54c-3.36-0.33-6.56-2.44-7.33-5.97c-0.7-3.2,1.5-6.27,4.83-6.09c2.12,0.12,4.1,1.68,4.33,4.71
		c0.15,0.14,0.3,0.28,0.45,0.41c0.08-0.26,0.13-0.54,0.25-0.78c1.29-2.71,1.24-5.6-0.78-8.08c-1.97-2.41-4.66-3.11-7.64-2.87
		c-3.1,0.25-5.56,1.73-7.29,4.27c-2.05,3.01-2.74,6.35-2.11,9.99c0.98,5.63,4.23,9.49,9.3,11.82c3.99,1.83,8.17,2.29,12.53,1.34
		c4.78-1.04,8.66-3.47,11.78-7.18c2.59-3.09,4.16-6.66,5.01-10.59c0.88-4.07,0.88-8.12-0.2-12.12c-1.36-5.03-4.15-9.23-8.12-12.58
		c-4.34-3.67-9.35-5.87-15.03-6.65c-4.43-0.6-8.79-0.36-13.08,0.76c-5.54,1.44-10.42,4.15-14.55,8.15
		c-3.84,3.73-6.72,8.08-8.74,13.05c-1.34,3.29-2.23,6.68-2.65,10.19c-0.26,2.21-0.26,4.45-0.33,6.68c-0.01,0.3,0.15,0.67,0.35,0.9
		C39.1,96.37,45.17,96.74,49.11,93.44z"/>
	<path class="st0" d="M132.82,95.66c-3.47-3.97-8.45-6.74-13.71-7.38c-3.23-0.39-6.98-0.25-10.06,0.8
		c-3.26,1.11-3.11,1.95-4.31,5.14c-3.7,9.81-11.66,15.74-21.41,18.59c4.68,7.24,4.29,15.25-0.81,22.16
		c12.74,1.58,27.14-3.19,37.58-10.38c5.32-3.67,10.03-8.32,13.84-13.53c1.42-1.94,3.69-4.3,3.56-6.82
		C137.36,101.35,134.63,97.73,132.82,95.66z"/>
	<path class="st0" d="M78.86,113.74c-0.26-0.28-0.78-0.43-1.19-0.44c-4.15-0.1-8.12-0.94-11.92-2.66
		c-6.09-2.76-10.65-7.06-13.56-13.09c-0.49-1.02-0.53-1.01-1.49-0.36c-3.81,2.57-7.91,3.2-12.3,1.72c-0.7-0.24-1.38-0.53-2.22-0.85
		c0.03,0.4,0.03,0.57,0.06,0.73c0.83,4.15,2.32,8.07,4.4,11.75c2.67,4.73,6.08,8.87,10.24,12.38c3.16,2.67,6.59,4.94,10.31,6.75
		c4.66,2.26,9.57,3.78,14.67,4.71c0.9,0.16,1.57-0.01,2.23-0.62c2.53-2.32,4.13-5.13,4.55-8.57
		C83.21,120.77,81.92,116.96,78.86,113.74z"/>
</g>
</svg>
