<svg xmlns="http://www.w3.org/2000/svg" viewBox="0 0 20 20">
  <defs>
    <style>
      .cls-1, .cls-2 {
        fill: #d8ba2d;
      }

      .cls-1 {
        opacity: 0.21;
      }
    </style>
  </defs>
  <title>pesquisa de demanda</title>
  <g id="Apoio">
    <path class="cls-1" d="M16.37,18.47738l-.12094.09544-.09627.07153-.22212.16488c-.20921.1218-.27312.16984-.49612.29169l-.07119.03885-.0568.02688-.11354.05373-.127.05792-.13579.05986c-.09484.04435-.1697.06533-.25292.0961l-.12224.04307c-.04085.014-.097.03138-.1387.044-.17364.05267-.35169.0989-.53259.13653a5.44536,5.44536,0,0,1-1.10556.11706,6.01277,6.01277,0,0,1-1.08361-.09156,5.86581,5.86581,0,0,1-2.01216-.75246,6.16276,6.16276,0,0,1-.8562-.62121c-.13268-.11492-.26073-.23462-.38215-.36027-.06165-.06192-.12022-.12665-.17891-.19107-.05761-.06553-.10911-.12324-.1645-.19317l-.16337-.21412c-.02634-.03545-.05548-.072-.07957-.10741l-.06226-.086c-.02465-.03386-.05361-.07411-.08427-.12019l-.0474-.07479-.03451-.0591L7.514,16.70636c-.041-.07079-.08357-.14649-.12552-.22677-.021-.0401-.04182-.08166-.06225-.12434l-.03025-.06514-.02427-.05544-.0458-.1-.05253-.121q-.05106-.12114-.095-.243a6.43206,6.43206,0,0,1-.26467-.97293c-.03093-.15779-.05872-.33347-.076-.50006-.018-.168-.02788-.33493-.03141-.50031a7.09561,7.09561,0,0,1,.04881-.97816,6.37261,6.37261,0,0,1,.20264-.95583q.06737-.23062.14982-.45342c.05527-.14774.11211-.29322.18324-.44579a6.4472,6.4472,0,0,1,.46077-.82472q.12821-.195.26781-.37878c.09319-.122.18714-.24078.29494-.36209a6.52214,6.52214,0,0,1,.657-.63911A7.31786,7.31786,0,0,1,9.691,8.22314c.13734-.08681.25971-.15544.38911-.22569q.19287-.10383.39092-.19577a6.73293,6.73293,0,0,1,.8104-.3139,6.34673,6.34673,0,0,1,.8344-.19711,6.46363,6.46363,0,0,1,1.65787-.07448,6.90765,6.90765,0,0,1,1.56193.31353,7.19544,7.19544,0,0,1,1.38319.63752c.10734.06514.21187.13262.31548.2041.10063.07064.19773.14195.29359.21543a7.13535,7.13535,0,0,1,.54759.46593,5.87753,5.87753,0,0,1,.48456.51415l.107.12689c.03864.04644.076.09307.11156.13975.07131.09333.13688.18641.19907.27745l.18189.27041c.07122.10866.123.21.17008.29572.05118.09078.10178.1945.15178.2901l.07457.14551.06474.1446a6.96927,6.96927,0,0,1,.54788,3.41973,6.977,6.977,0,0,1-.45468,1.88519,6.73916,6.73916,0,0,1-.76486,1.42572,7.27552,7.27552,0,0,1-1.53829,1.5868c-.20625.14823-.368.25006-.47638.31988L16.57082,20l.154-.119c.10178-.07839.255-.19389.44434-.35445.09027-.08662.196-.18019.30381-.28929l.17047-.16974c.05863-.05965.11361-.12891.1741-.19689a6.90111,6.90111,0,0,0,.73749-1.00923,6.56788,6.56788,0,0,0,.63481-1.41448,6.68021,6.68021,0,0,0,.31025-1.80044,6.42619,6.42619,0,0,0-.27183-2.0572,6.315,6.315,0,0,0-.4179-1.04836l-.06768-.13051-.07342-.12386c-.05052-.08367-.09449-.16414-.15052-.25182-.05807-.09385-.10743-.17631-.156-.24119l-.18719-.24765c-.06273-.08186-.12535-.161-.18932-.23586-.03194-.03759-.06437-.07368-.09713-.109l-.11-.11717a5.13381,5.13381,0,0,0-.447-.427c-.1588-.1352-.32772-.26371-.50455-.38623-.0885-.061-.17954-.12094-.27066-.17835-.08915-.055-.18224-.1088-.27674-.15992a6.38088,6.38088,0,0,0-1.22726-.49535,6.02163,6.02163,0,0,0-1.34482-.2058,5.47943,5.47943,0,0,0-1.39031.12231,5.32919,5.32919,0,0,0-.68461.1905,5.681,5.681,0,0,0-.66362.28729q-.163.08331-.32277.17717c-.10526.06206-.21616.13059-.30594.19224a6.27924,6.27924,0,0,0-.57775.46442,5.37888,5.37888,0,0,0-.51575.53655c-.07466.08954-.15124.19281-.22507.29627q-.11.15534-.20968.31767a5.2431,5.2431,0,0,0-.34982.67357c-.04677.10794-.091.23115-.13291.354q-.06184.18393-.111.3715a5.14488,5.14488,0,0,0-.13936.75428,5.87474,5.87474,0,0,0-.01864.78428c.006.13023.01689.25939.03371.38671.01676.12883.03824.24741.06766.38234a5.11483,5.11483,0,0,0,.224.75992q.035.09035.07385.17769l.03971.08654.051.10577.02227.04837.01852.03775.04145.07859c.02956.05387.06257.11034.09913.17071l.11947.19559.02395.03943.01459.02165.049.06663.07426.09885c.01936.02771.03914.05038.059.07619l.11774.15108a4.55683,4.55683,0,0,0,3.57765,1.64851,3.99342,3.99342,0,0,0,.80719-.091c.13456-.02874.26918-.06424.40485-.106l.09247-.02963.10664-.03816a1.88992,1.88992,0,0,0,.20094-.07756l.18081-.08338.10671-.05088.05338-.02544.035-.02125c.06255-.03462.2725-.16384.345-.20717l.14455-.10741.09-.06682.06264-.0484a1.5808,1.5808,0,0,0,.14507-.125l.13817-.12851.06318-.05842c.02165-.02107.04552-.05009.06816-.07471l.13445-.1511c.03237-.03833.07855-.09585.116-.14365.03855-.0503.07669-.10056.11255-.15156.07239-.10176.13952-.205.20025-.31039a3.59553,3.59553,0,0,0,.16518-.32116c.04876-.109.09749-.22987.137-.34323a4.09886,4.09886,0,0,0,.17856-.70617,3.77177,3.77177,0,0,0-.0432-1.41537,3.86407,3.86407,0,0,0-.21208-.6705c-.02191-.054-.04656-.10655-.07074-.15924-.027-.05277-.05474-.11746-.08485-.16386l-.17825-.29938-.00951-.01475c-.00221-.01189-.00727.03063.041-.04576-.10751.058-.03229.0128-.05741.02428L16.237,12.0682l-.00866-.01141-.01694-.02246-.03249-.04337-.11332-.15005c-.03412-.04379-.0646-.08008-.09256-.11054l-.0302-.0316c-.01558-.01552-.02655-.02861-.03945-.04272l-.06156-.06692a3.41374,3.41374,0,0,0-.509-.42925c-.0473-.03287-.09738-.06714-.14468-.09765-.04589-.0299-.08695-.05468-.135-.082a3.187,3.187,0,0,0-.29169-.14614,3.73737,3.73737,0,0,0-.62074-.21343,3.693,3.693,0,0,0-.64837-.08955c-.05372-.00263-.11376-.00474-.16265-.00517-.04938-.0011-.09369.00141-.14926.00378-.10519.00609-.21075.01632-.31629.03249q-.15829.02376-.31588.06151c-.05225.01222-.10528.02649-.15641.04062-.04964.01393-.08528.02525-.13649.04364a3.51057,3.51057,0,0,0-.56837.26405c-.04619.02686-.09232.05388-.13791.08262a1.047,1.047,0,0,0-.10676.07193c-.08593.06415-.16878.13-.24687.19833-.07837.06813-.15257.13832-.22187.2106a2.547,2.547,0,0,0-.18709.21525,3.507,3.507,0,0,0-.32217.50863,2.63473,2.63473,0,0,0-.11567.25506c-.03345.08906-.066.1886-.09258.28218-.02673.09492-.04937.18958-.067.28357a2.50159,2.50159,0,0,0-.037.26858,3.43779,3.43779,0,0,0,.00653.57432q.00689.0675.01753.132l.01083.06158.01459.06847c.02178.0973.04585.19043.07277.27858a2.42569,2.42569,0,0,0,.0899.248c.01649.03855.03373.07563.052.11087.0524.10247.04283.0925.06451.13027.017.03085.0397.06806.06778.11245l.04562.07222.02632.04232s.01876.03256.0233.03846l.05263.06558.17.20957q.045.04861.09221.09458c.06241.06189.12836.11937.19584.1742a2.52413,2.52413,0,0,0,1.85635.5662,2.28523,2.28523,0,0,0,.45873-.09817l.05918-.01917c.018-.00626.03039-.00954.05327-.01863l.12379-.04694.20826-.10351.017-.00837.06737-.04375.13026-.08261a.22042.22042,0,0,0,.02969-.01974l.05527-.04119c.03327-.02508.05888-.04569.07752-.06227l.0132-.01209.02586-.02561.05161-.05109.08072-.0766c.02735-.028.05779-.06844.08649-.10184l.02171-.02617.01623-.02078.03777-.04984a2.07839,2.07839,0,0,0,.238-.39668c.02983-.06357.05487-.14056.08008-.21238.02192-.07231.0412-.1449.05647-.21888a2.19557,2.19557,0,0,0,.00034-.8736,1.62337,1.62337,0,0,0-.1287-.38129c-.01363-.03251-.0266-.05211-.03867-.07561l-.01771-.035-.03559-.05234-.08237-.1218a.22064.22064,0,0,0-.028-.04281c-.08838-.10451-.12916-.158-.13865-.16582L14.498,12.8176l-.01122-.01259a1.2593,1.2593,0,0,0-.23846-.19823l-.0754-.04869-.07245-.04414a1.18686,1.18686,0,0,0-.133-.06568c-.04824-.02041-.09965-.03917-.15337-.05669l-.08243-.02537-.06945-.01983a1.67589,1.67589,0,0,0-.30236-.03759c-.05154-.00227-.1089-.00208-.15736-.001-.00955-.00065-.03861.00211-.0627.00455l-.07329.00922a1.51546,1.51546,0,0,0-.27459.06641,1.41244,1.41244,0,0,0-.24769.11657c-.04121.02391-.08244.05009-.12374.07764a.49246.49246,0,0,0-.09017.06778,1.94354,1.94354,0,0,0-.18851.19064l-.03809.04732a.40871.40871,0,0,0-.02755.038q-.0357.0573-.06622.11293a1.48879,1.48879,0,0,0-.09611.21194c-.008.02114-.0205.07363-.02877.10948-.00888.0393-.0165.07764-.02228.11477s-.01015.07324-.01277.10816a.54544.54544,0,0,0-.0002.09726,1.557,1.557,0,0,0,.02191.20871l.00916.042a.39549.39549,0,0,0,.01312.04319l.03593.10106a.74441.74441,0,0,0,.07031.14639l.03111.04956.014.02037.028.037c.00948.01158.01492.0259.0246.03628l.01487.0147c.00027.0012.02022.01684.04234.04181l-.02585-.02417c.01009.00847.019.01678.02564.02361l.00813.00927.011.01392a.19322.19322,0,0,0,.02271.022,1.0536,1.0536,0,0,0,.39638.21887.9445.9445,0,0,0,.34626.02606.845.845,0,0,0,.252-.07656c.12964-.06643.19348-.11744.21887-.09235.01708.01394.00716.09644-.11454.23094a.69069.69069,0,0,1-.28993.18937,1.06319,1.06319,0,0,1-.46888.06941,1.32416,1.32416,0,0,1-.61231-.219.3803.3803,0,0,1-.04738-.0337l-.024-.02183-.00635-.006-.00291-.00276-.05741-.0417a.77255.77255,0,0,1-.05737-.05832l-.06247-.06421c-.0107-.01143-.02132-.02349-.03161-.03638a.405.405,0,0,1-.03855-.05752l.02822.04238a1.59554,1.59554,0,0,1-.36274-1.11461c.00259-.05359.00749-.10666.01385-.15942.00747-.05609.0117-.09667.02675-.1682a2.03038,2.03038,0,0,1,.11193-.33551c.02278-.05308.04727-.10513.073-.15625a.95759.95759,0,0,1,.05328-.093c.0168-.02708.03447-.05323.05247-.07922a2.54451,2.54451,0,0,1,.236-.286l.07563-.07718.08451-.06788c.048-.038.09839-.07618.1521-.11349a2.14314,2.14314,0,0,1,.36189-.20578,2.24852,2.24852,0,0,1,.41176-.1343q.0531-.01192.1071-.0216c.03655-.00615.06846-.01245.12055-.01753.07486-.00714.14214-.01187.21631-.01406A2.47941,2.47941,0,0,1,13.82,11.516c.05719.01013.08417.01713.121.02488l.108.02574c.07317.01872.14858.04058.22579.06747a2.05657,2.05657,0,0,1,.23712.099c.04342.02154.072.03749.10645.05589l.10183.05735a2.15344,2.15344,0,0,1,.42457.3167l-.043-.03887a2.32978,2.32978,0,0,1,.25958.25734.91306.91306,0,0,1,.12338.15492l.004.00529.00066.0006-.05751.04106-.04386.03266-.01871.01471c.25842-.15394.072-.04223.12982-.07639l.00059.00078.00118.00157.00954.0125.03826.05017.0384.05038.04818.07365c.03162.04927.06519.10124.08783.14639a2.57263,2.57263,0,0,1,.23715.592,3.17236,3.17236,0,0,1,.06492,1.28952c-.01725.11014-.04087.22075-.06937.33114a3.38678,3.38678,0,0,1-.10724.32812,3.12331,3.12331,0,0,1-.33279.61937l-.04887.07037-.028.03888-.02446.03216c-.03405.04345-.062.08413-.10153.13018l-.12849.13941-.05354.0574-.02684.02877-.04056.0414c-.05437.05354-.10677.09809-.15329.13628l-.06542.05285a.94525.94525,0,0,1-.09478.06984l-.127.08748-.02726.0188-.00593.00455-.02766.01984a.955.955,0,0,1-.11661.0707l-.13907.07546c-.05323.02783-.1104.0593-.16154.08318l-.144.06068c-.02161.00957-.05493.02179-.08234.03227l-.078.02846a3.4401,3.4401,0,0,1-.6837.17053,3.71935,3.71935,0,0,1-2.77545-.74678c-.10066-.07694-.19884-.15822-.29224-.24541q-.07039-.065-.13786-.13364l-.05518-.05652c-.03763-.03808-.07165-.07837-.09478-.10693l-.10089-.1249a1.65128,1.65128,0,0,1-.14509-.18807L9.514,15.83291l-.04427-.06621c-.032-.048-.06884-.10376-.1072-.16873-.03568-.057-.08934-.169-.08852-.16489-.03441-.06257-.06585-.12571-.09494-.189a3.69687,3.69687,0,0,1-.14924-.3798c-.04194-.12608-.07717-.25111-.10787-.37447l-.0232-.09757-.02153-.106q-.01962-.1036-.03255-.20654a4.7131,4.7131,0,0,1-.02894-.80641,3.75,3.75,0,0,1,.04767-.42543c.02262-.13662.05189-.27137.08641-.40421.03531-.134.0736-.26061.1209-.395a3.91375,3.91375,0,0,1,.17066-.40028,4.84233,4.84233,0,0,1,.43706-.72094,3.86834,3.86834,0,0,1,.28522-.34245c.09816-.106.20081-.20643.3067-.30177.10576-.09565.21506-.18559.3265-.27162a2.38462,2.38462,0,0,1,.19948-.14006c.05913-.03854.1199-.07568.18112-.11247a4.89806,4.89806,0,0,1,.79243-.38194c.06746-.02555.15215-.05425.22452-.07538.0709-.02083.14045-.04047.21195-.05839q.2134-.05454.43517-.091c.14759-.02455.298-.04163.45028-.05231.07322-.00448.158-.00942.23806-.009.08051-.00027.15006.00144.226.00412a5.10841,5.10841,0,0,1,.90356.11434,5.0394,5.0394,0,0,1,3.05411,2.10784,5.30434,5.30434,0,0,1,.82071,3.73152,5.56848,5.56848,0,0,1-.24131.96869c-.05571.16007-.115.30888-.1846.46564a5.076,5.076,0,0,1-.23379.457c-.08508.148-.17759.29077-.27522.42843-.04859.06911-.09911.13612-.1501.2026-.05335.068-.099.12577-.16175.20017l-.15969.1801c-.02733.02981-.05047.05814-.08129.08918l-.09778.09465c-.06544.06309-.1341.12854-.1867.17553C16.5043,18.36283,16.45654,18.41013,16.37,18.47738Z" transform="translate(0 0)"/>
  </g>
  <g id="Icone">
    <g id="pesquisa_demanda" data-name="pesquisa demanda">
      <path class="cls-2" d="M12.93229.98257A.14028.14028,0,0,1,12.85751.906a.14406.14406,0,0,1-.01064-.054.14406.14406,0,0,0,.01064.054.14028.14028,0,0,0,.07478.07654l1.653.69644a.13086.13086,0,0,0,.05153.01041.13086.13086,0,0,1-.05153-.01041Z" transform="translate(0 0)"/>
      <path class="cls-2" d="M.31527,6.33861H.54878V5.0084a.548.548,0,0,1,.536-.558H11.438l.05519-.142.167-.42988H1.08478A1.10924,1.10924,0,0,0,0,5.0084V6.76672l.00022.00177v-.002a.29034.29034,0,0,1,.04154-.14935A.27957.27957,0,0,1,.31527,6.33861Z" transform="translate(0 0)"/>
      <path class="cls-2" d="M16.14005,3.73649H13.93422l-.222.57192h2.42782a.54775.54775,0,0,1,.53534.55795V6.33861h.27438a.28038.28038,0,0,1,.2744.28585V4.86636A1.109,1.109,0,0,0,16.14005,3.73649Z" transform="translate(0 0)"/>
      <path class="cls-2" d="M16.94977,6.33861H12.924l.78823-2.0302.222-.57192.82959-2.13629a.13841.13841,0,0,1-.07352.07791.13262.13262,0,0,1-.05349.01131.13086.13086,0,0,1-.05153-.01041l-1.653-.69644A.14028.14028,0,0,1,12.85751.906a.14406.14406,0,0,1-.01064-.054A.15074.15074,0,0,1,12.85625.798l-1.141,2.93854-.055.142-.167.42988-.05519.142L10.705,6.33861H.31527a.27957.27957,0,0,0-.27351.27853l-.00087.00732v8.72115a1.10921,1.10921,0,0,0,1.0846,1.12982H16.14005a1.109,1.109,0,0,0,1.08412-1.12982V6.62446A.28038.28038,0,0,0,16.94977,6.33861Zm-.2746,9.007a.54754.54754,0,0,1-.53512.55791H1.12549a.54762.54762,0,0,1-.53561-.55791V6.91053H10.483l-1.15869,2.984L9.314,9.92589l.25458.10717h0c.00341-.01041.006-.02109.01-.03127l3.481-8.96527,1.39818.58945-3.481,8.96505c-.00406.01041-.01109.01886-.01558.029l.25545.10763h0c.00446-.01018.01043-.019.0145-.0295L12.702,6.91053h3.97316Z" transform="translate(0 0)"/>
      <path class="cls-2" d="M1.0168,5.16529a.15524.15524,0,0,0,.15193.15822H2.35024a.15837.15837,0,0,0,0-.31648H1.16873A.15514.15514,0,0,0,1.0168,5.16529Z" transform="translate(0 0)"/>
      <path class="cls-2" d="M15.03135,5.32351h1.18173a.15838.15838,0,0,0,0-.31648H15.03135a.15839.15839,0,0,0,0,.31648Z" transform="translate(0 0)"/>
      <path class="cls-2" d="M12.84687.85208a.14406.14406,0,0,0,.01064.054.14028.14028,0,0,0,.07478.07654l1.653.69644a.13086.13086,0,0,0,.05153.01041.13262.13262,0,0,0,.05349-.01131.13841.13841,0,0,0,.07352-.07791L14.764,1.6l.10079-.25985a1.01354,1.01354,0,0,0-.62461-1.249,1.08164,1.08164,0,0,0-.75887-.04063.82642.82642,0,0,0-.52364.48605l-.101.26012L12.85625.798h0A.15074.15074,0,0,0,12.84687.85208ZM13.212.64391A.55124.55124,0,0,1,13.5648.323a.81552.81552,0,0,1,.57265.033.72687.72687,0,0,1,.47274.87707l-.04922.1274L13.16257.77131Z" transform="translate(0 0)"/>
      <path class="cls-2" d="M9.12336,12.19553l.08482.04086.05773.0275-.0846.74413a.04253.04253,0,0,0,.07713.03086l.39989-.59255.04537.02064.09244.04195,1.461-1.76414-.04045-.01709h0l-.25545-.10763-1.39264-.587h0L9.314,9.92589l-.06452-.02732Zm.59717-.03281c-.11038-.05041-.216-.09945-.3123-.14536l.0935-1.70423,1.29739.54687Z" transform="translate(0 0)"/>
    </g>
  </g>
</svg>
