<?xml version="1.0" encoding="utf-8"?>
<!-- Generator: Adobe Illustrator 23.0.2, SVG Export Plug-In . SVG Version: 6.00 Build 0)  -->
<svg version="1.1" id="Layer_1" xmlns="http://www.w3.org/2000/svg" xmlns:xlink="http://www.w3.org/1999/xlink" x="0px" y="0px"
	 viewBox="0 0 20.03 20" style="enable-background:new 0 0 20.03 20;" xml:space="preserve">
<style type="text/css">
	.st0{opacity:0.21;fill:#D8BA2D;enable-background:new    ;}
	.st1{fill:#D8BA2D;}
	.st2{clip-path:url(#SVGID_2_);}
	.st3{fill:none;}
	.st4{fill:none;stroke:#D8BA2D;stroke-width:0.5;stroke-miterlimit:10;}
	.st5{fill:none;stroke:#D8BA2D;stroke-miterlimit:10;}
</style>
<title>roteiros</title>
<g id="Apoio">
	<path class="st0" d="M16.4,18.48l-0.12,0.1l-0.1,0.07l-0.22,0.16c-0.21,0.12-0.27,0.17-0.5,0.29l-0.07,0.04l-0.06,0.03l-0.11,0.05
		l-0.13,0.06l-0.14,0.06c-0.09,0.04-0.17,0.07-0.25,0.1l-0.12,0.04c-0.04,0.01-0.1,0.03-0.14,0.04c-0.17,0.05-0.35,0.1-0.53,0.14
		c-0.36,0.08-0.73,0.12-1.11,0.12c-0.36,0-0.73-0.03-1.08-0.09c-0.71-0.12-1.39-0.38-2.01-0.75c-0.3-0.18-0.59-0.39-0.86-0.62
		c-0.13-0.11-0.26-0.23-0.38-0.36c-0.06-0.06-0.12-0.13-0.18-0.19c-0.06-0.07-0.11-0.12-0.16-0.19l-0.16-0.21
		c-0.03-0.04-0.06-0.07-0.08-0.11l-0.06-0.09c-0.02-0.03-0.05-0.07-0.08-0.12l-0.05-0.07L7.66,16.9l-0.12-0.2
		c-0.04-0.07-0.08-0.15-0.13-0.23c-0.02-0.04-0.04-0.08-0.06-0.12l-0.03-0.07L7.3,16.23l-0.05-0.1L7.2,16.01
		c-0.03-0.08-0.07-0.16-0.09-0.24c-0.11-0.32-0.2-0.64-0.26-0.97c-0.03-0.16-0.06-0.33-0.08-0.5c-0.02-0.17-0.03-0.33-0.03-0.5
		c-0.01-0.33,0.01-0.65,0.05-0.98c0.04-0.32,0.11-0.64,0.2-0.96c0.04-0.15,0.09-0.3,0.15-0.45c0.06-0.15,0.11-0.29,0.18-0.45
		c0.13-0.29,0.29-0.56,0.46-0.82c0.09-0.13,0.17-0.26,0.27-0.38C8.14,9.64,8.24,9.52,8.34,9.4C8.55,9.17,8.77,8.96,9,8.76
		c0.23-0.19,0.47-0.37,0.72-0.54C9.86,8.14,9.98,8.07,10.11,8c0.13-0.07,0.26-0.13,0.39-0.2c0.26-0.12,0.53-0.23,0.81-0.31
		c0.27-0.08,0.55-0.15,0.83-0.2c0.55-0.1,1.1-0.12,1.66-0.07c0.53,0.04,1.06,0.15,1.56,0.31c0.48,0.16,0.95,0.38,1.38,0.64
		c0.11,0.07,0.21,0.13,0.32,0.2c0.1,0.07,0.2,0.14,0.29,0.22c0.19,0.15,0.37,0.3,0.55,0.47c0.17,0.16,0.33,0.33,0.48,0.51l0.11,0.13
		c0.04,0.05,0.08,0.09,0.11,0.14c0.07,0.09,0.14,0.19,0.2,0.28l0.18,0.27c0.07,0.11,0.12,0.21,0.17,0.3
		c0.05,0.09,0.1,0.19,0.15,0.29l0.07,0.15l0.06,0.14c0.47,1.08,0.66,2.25,0.55,3.42c-0.06,0.65-0.22,1.28-0.45,1.89
		c-0.2,0.5-0.45,0.98-0.76,1.43c-0.43,0.6-0.95,1.14-1.54,1.59c-0.21,0.15-0.37,0.25-0.48,0.32L16.6,20l0.15-0.12
		c0.1-0.08,0.25-0.19,0.44-0.35c0.09-0.09,0.2-0.18,0.3-0.29l0.17-0.17c0.06-0.06,0.11-0.13,0.17-0.2c0.28-0.31,0.52-0.65,0.74-1.01
		c0.27-0.44,0.48-0.92,0.63-1.41c0.19-0.58,0.29-1.19,0.31-1.8c0.02-0.7-0.07-1.39-0.27-2.06c-0.11-0.36-0.25-0.71-0.42-1.05
		l-0.07-0.13l-0.07-0.12c-0.05-0.08-0.09-0.16-0.15-0.25c-0.06-0.09-0.11-0.18-0.16-0.24l-0.19-0.25c-0.06-0.08-0.13-0.16-0.19-0.24
		c-0.03-0.04-0.06-0.07-0.1-0.11l-0.11-0.12c-0.14-0.15-0.29-0.29-0.45-0.43c-0.16-0.14-0.33-0.26-0.5-0.39
		c-0.09-0.06-0.18-0.12-0.27-0.18c-0.09-0.06-0.18-0.11-0.28-0.16c-0.39-0.21-0.8-0.37-1.23-0.5c-0.44-0.12-0.89-0.19-1.34-0.21
		c-0.47-0.02-0.93,0.02-1.39,0.12c-0.23,0.05-0.46,0.11-0.68,0.19C11.44,8.63,11.21,8.72,11,8.83c-0.11,0.06-0.22,0.11-0.32,0.18
		c-0.11,0.06-0.22,0.13-0.31,0.19c-0.2,0.14-0.39,0.3-0.58,0.46c-0.18,0.17-0.36,0.35-0.52,0.54c-0.07,0.09-0.15,0.19-0.23,0.3
		c-0.07,0.1-0.14,0.21-0.21,0.32c-0.13,0.22-0.25,0.44-0.35,0.67c-0.05,0.11-0.09,0.23-0.13,0.35c-0.04,0.12-0.08,0.25-0.11,0.37
		c-0.07,0.25-0.11,0.5-0.14,0.75c-0.02,0.26-0.03,0.52-0.02,0.78c0.01,0.13,0.02,0.26,0.03,0.39c0.02,0.13,0.04,0.25,0.07,0.38
		c0.05,0.26,0.13,0.51,0.22,0.76c0.02,0.06,0.05,0.12,0.07,0.18l0.04,0.09l0.05,0.11L8.6,15.7l0.02,0.04l0.04,0.08
		c0.03,0.05,0.06,0.11,0.1,0.17l0.12,0.2l0.02,0.04l0.01,0.02l0.05,0.07l0.07,0.1c0.02,0.03,0.04,0.05,0.06,0.08l0.12,0.15
		c0.88,1.06,2.2,1.67,3.58,1.65c0.27,0,0.54-0.03,0.81-0.09c0.13-0.03,0.27-0.06,0.4-0.11l0.09-0.03l0.11-0.04
		c0.07-0.02,0.14-0.05,0.2-0.08l0.18-0.08l0.11-0.05l0.05-0.03l0.03-0.02c0.06-0.03,0.27-0.16,0.35-0.21l0.14-0.11l0.09-0.07
		l0.06-0.05c0.05-0.04,0.1-0.08,0.15-0.13l0.14-0.13l0.06-0.06c0.02-0.02,0.05-0.05,0.07-0.07l0.13-0.15
		c0.03-0.04,0.08-0.1,0.12-0.14c0.04-0.05,0.08-0.1,0.11-0.15c0.07-0.1,0.14-0.2,0.2-0.31c0.06-0.1,0.12-0.21,0.17-0.32
		c0.05-0.11,0.1-0.23,0.14-0.34c0.08-0.23,0.14-0.47,0.18-0.71c0.08-0.47,0.06-0.95-0.04-1.42c-0.05-0.23-0.12-0.45-0.21-0.67
		c-0.02-0.05-0.05-0.11-0.07-0.16c-0.03-0.05-0.05-0.12-0.08-0.16l-0.18-0.3l-0.01-0.01c0-0.01-0.01,0.03,0.04-0.05
		c-0.11,0.06-0.03,0.01-0.06,0.02l0-0.01l-0.01-0.01l-0.02-0.02l-0.03-0.04l-0.11-0.15c-0.03-0.04-0.06-0.08-0.09-0.11l-0.03-0.03
		c-0.02-0.02-0.03-0.03-0.04-0.04l-0.06-0.07c-0.16-0.16-0.33-0.3-0.51-0.43c-0.05-0.03-0.1-0.07-0.14-0.1
		c-0.05-0.03-0.09-0.05-0.14-0.08c-0.09-0.05-0.19-0.1-0.29-0.15c-0.2-0.09-0.41-0.16-0.62-0.21c-0.21-0.05-0.43-0.08-0.65-0.09
		c-0.05,0-0.11,0-0.16-0.01c-0.05,0-0.09,0-0.15,0c-0.11,0.01-0.21,0.02-0.32,0.03c-0.11,0.02-0.21,0.04-0.32,0.06
		c-0.05,0.01-0.11,0.03-0.16,0.04c-0.05,0.01-0.09,0.03-0.14,0.04c-0.2,0.07-0.39,0.16-0.57,0.26c-0.05,0.03-0.09,0.05-0.14,0.08
		c-0.04,0.02-0.07,0.05-0.11,0.07c-0.09,0.06-0.17,0.13-0.25,0.2c-0.08,0.07-0.15,0.14-0.22,0.21c-0.07,0.07-0.13,0.14-0.19,0.22
		c-0.12,0.16-0.23,0.33-0.32,0.51c-0.04,0.08-0.08,0.17-0.12,0.26c-0.03,0.09-0.07,0.19-0.09,0.28c-0.03,0.09-0.05,0.19-0.07,0.28
		c-0.02,0.09-0.03,0.18-0.04,0.27c-0.01,0.19-0.01,0.38,0.01,0.57c0,0.05,0.01,0.09,0.02,0.13l0.01,0.06l0.01,0.07
		c0.02,0.1,0.05,0.19,0.07,0.28c0.03,0.08,0.06,0.17,0.09,0.25c0.02,0.04,0.03,0.08,0.05,0.11c0.05,0.1,0.04,0.09,0.06,0.13
		c0.02,0.03,0.04,0.07,0.07,0.11l0.05,0.07l0.03,0.04c0,0,0.02,0.03,0.02,0.04l0.05,0.07l0.17,0.21c0.03,0.03,0.06,0.06,0.09,0.09
		c0.06,0.06,0.13,0.12,0.2,0.17c0.52,0.43,1.19,0.63,1.86,0.57c0.16-0.02,0.31-0.05,0.46-0.1l0.06-0.02
		c0.02-0.01,0.03-0.01,0.05-0.02l0.12-0.05l0.21-0.1l0.02-0.01l0.07-0.04l0.13-0.08c0.01-0.01,0.02-0.01,0.03-0.02l0.06-0.04
		c0.03-0.03,0.06-0.05,0.08-0.06l0.01-0.01l0.03-0.03l0.05-0.05l0.08-0.08c0.03-0.03,0.06-0.07,0.09-0.1l0.02-0.03l0.02-0.02
		l0.04-0.05c0.09-0.12,0.17-0.26,0.24-0.4c0.03-0.06,0.05-0.14,0.08-0.21c0.02-0.07,0.04-0.14,0.06-0.22c0.06-0.29,0.06-0.59,0-0.87
		c-0.03-0.13-0.07-0.26-0.13-0.38c-0.01-0.03-0.03-0.05-0.04-0.08l-0.02-0.03l-0.04-0.05l-0.08-0.12c-0.01-0.02-0.02-0.03-0.03-0.04
		c-0.09-0.1-0.13-0.16-0.14-0.17l-0.03-0.03l-0.01-0.01c-0.07-0.08-0.15-0.14-0.24-0.2l-0.08-0.05l-0.07-0.04
		c-0.04-0.02-0.09-0.05-0.13-0.07c-0.05-0.02-0.1-0.04-0.15-0.06l-0.08-0.03l-0.07-0.02c-0.1-0.02-0.2-0.03-0.3-0.04
		c-0.05,0-0.11,0-0.16,0c-0.01,0-0.04,0-0.06,0l-0.07,0.01c-0.09,0.01-0.19,0.04-0.27,0.07c-0.09,0.03-0.17,0.07-0.25,0.12
		c-0.04,0.02-0.08,0.05-0.12,0.08c-0.03,0.02-0.06,0.04-0.09,0.07c-0.07,0.06-0.13,0.12-0.19,0.19l-0.04,0.05
		c-0.01,0.01-0.02,0.02-0.03,0.04c-0.02,0.04-0.05,0.08-0.07,0.11c-0.04,0.07-0.07,0.14-0.1,0.21c-0.01,0.02-0.02,0.07-0.03,0.11
		c-0.01,0.04-0.02,0.08-0.02,0.11s-0.01,0.07-0.01,0.11c0,0.03,0,0.06,0,0.1c0,0.07,0.01,0.14,0.02,0.21l0.01,0.04
		c0,0.01,0.01,0.03,0.01,0.04l0.04,0.1c0.02,0.05,0.04,0.1,0.07,0.15l0.03,0.05l0.01,0.02l0.03,0.04c0.01,0.01,0.01,0.03,0.02,0.04
		l0.01,0.01c0,0,0.02,0.02,0.04,0.04l-0.03-0.02c0.01,0.01,0.02,0.02,0.03,0.02l0.01,0.01l0.01,0.01c0.01,0.01,0.01,0.02,0.02,0.02
		c0.11,0.1,0.25,0.18,0.4,0.22c0.11,0.03,0.23,0.04,0.35,0.03c0.09-0.01,0.17-0.04,0.25-0.08c0.13-0.07,0.19-0.12,0.22-0.09
		c0.02,0.01,0.01,0.1-0.11,0.23c-0.08,0.09-0.18,0.15-0.29,0.19c-0.15,0.06-0.31,0.08-0.47,0.07c-0.22-0.02-0.43-0.1-0.61-0.22
		c-0.02-0.01-0.03-0.02-0.05-0.03l-0.02-0.02l-0.01-0.01l0,0l-0.06-0.04c-0.02-0.02-0.04-0.04-0.06-0.06l-0.06-0.06
		c-0.01-0.01-0.02-0.02-0.03-0.04c-0.01-0.02-0.03-0.04-0.04-0.06l0.03,0.04c-0.26-0.31-0.39-0.71-0.36-1.11
		c0-0.05,0.01-0.11,0.01-0.16c0.01-0.06,0.01-0.1,0.03-0.17c0.03-0.11,0.06-0.23,0.11-0.34c0.02-0.05,0.05-0.11,0.07-0.16
		c0.02-0.03,0.03-0.06,0.05-0.09c0.02-0.03,0.03-0.05,0.05-0.08c0.07-0.1,0.15-0.2,0.24-0.29l0.08-0.08L12.02,12
		c0.05-0.04,0.1-0.08,0.15-0.11c0.11-0.08,0.23-0.15,0.36-0.21c0.13-0.06,0.27-0.1,0.41-0.13c0.04-0.01,0.07-0.02,0.11-0.02
		c0.04-0.01,0.07-0.01,0.12-0.02c0.07-0.01,0.14-0.01,0.22-0.01c0.15-0.01,0.31,0,0.46,0.03c0.06,0.01,0.08,0.02,0.12,0.02
		l0.11,0.03c0.07,0.02,0.15,0.04,0.23,0.07c0.08,0.03,0.16,0.06,0.24,0.1c0.04,0.02,0.07,0.04,0.11,0.06l0.1,0.06
		c0.15,0.09,0.3,0.19,0.42,0.32l-0.04-0.04c0.09,0.08,0.18,0.16,0.26,0.26c0.05,0.05,0.09,0.1,0.12,0.15l0,0.01l0,0l-0.06,0.04
		l-0.04,0.03l-0.02,0.01c0.26-0.15,0.07-0.04,0.13-0.08l0,0l0,0l0.01,0.01l0.04,0.05l0.04,0.05l0.05,0.07
		c0.03,0.05,0.07,0.1,0.09,0.15c0.1,0.19,0.18,0.39,0.24,0.59c0.11,0.42,0.13,0.86,0.06,1.29c-0.02,0.11-0.04,0.22-0.07,0.33
		c-0.03,0.11-0.07,0.22-0.11,0.33c-0.09,0.22-0.2,0.43-0.33,0.62l-0.05,0.07l-0.03,0.04l-0.02,0.03c-0.03,0.04-0.06,0.08-0.1,0.13
		l-0.13,0.14l-0.05,0.06l-0.03,0.03l-0.04,0.04c-0.05,0.05-0.11,0.1-0.15,0.14l-0.07,0.05c-0.03,0.03-0.06,0.05-0.09,0.07
		l-0.13,0.09l-0.03,0.02l-0.01,0l-0.03,0.02c-0.04,0.03-0.08,0.05-0.12,0.07l-0.14,0.08c-0.05,0.03-0.11,0.06-0.16,0.08l-0.14,0.06
		c-0.02,0.01-0.05,0.02-0.08,0.03l-0.08,0.03c-0.22,0.08-0.45,0.14-0.68,0.17c-0.99,0.13-1.99-0.14-2.78-0.75
		c-0.1-0.08-0.2-0.16-0.29-0.25c-0.05-0.04-0.09-0.09-0.14-0.13l-0.06-0.06c-0.04-0.04-0.07-0.08-0.09-0.11l-0.1-0.12
		c-0.05-0.06-0.1-0.12-0.15-0.19l-0.04-0.06L9.5,15.77c-0.03-0.05-0.07-0.1-0.11-0.17c-0.04-0.06-0.09-0.17-0.09-0.16
		c-0.03-0.06-0.07-0.13-0.09-0.19c-0.06-0.12-0.11-0.25-0.15-0.38c-0.04-0.13-0.08-0.25-0.11-0.37l-0.02-0.1l-0.02-0.11
		c-0.01-0.07-0.02-0.14-0.03-0.21c-0.03-0.27-0.04-0.54-0.03-0.81c0.01-0.14,0.02-0.28,0.05-0.43c0.02-0.14,0.05-0.27,0.09-0.4
		c0.04-0.13,0.07-0.26,0.12-0.4c0.05-0.14,0.11-0.27,0.17-0.4c0.12-0.25,0.27-0.49,0.44-0.72c0.09-0.12,0.18-0.23,0.29-0.34
		c0.1-0.11,0.2-0.21,0.31-0.3c0.11-0.1,0.22-0.19,0.33-0.27c0.06-0.05,0.13-0.1,0.2-0.14c0.06-0.04,0.12-0.08,0.18-0.11
		c0.25-0.15,0.52-0.28,0.79-0.38c0.07-0.03,0.15-0.05,0.22-0.08c0.07-0.02,0.14-0.04,0.21-0.06c0.14-0.04,0.29-0.07,0.44-0.09
		c0.15-0.02,0.3-0.04,0.45-0.05c0.07,0,0.16-0.01,0.24-0.01c0.08,0,0.15,0,0.23,0c0.3,0.01,0.61,0.05,0.9,0.11
		c1.25,0.29,2.34,1.04,3.05,2.11c0.73,1.1,1.02,2.43,0.82,3.73c-0.05,0.33-0.13,0.65-0.24,0.97c-0.06,0.16-0.11,0.31-0.18,0.47
		c-0.07,0.16-0.15,0.31-0.23,0.46c-0.09,0.15-0.18,0.29-0.28,0.43c-0.05,0.07-0.1,0.14-0.15,0.2c-0.05,0.07-0.1,0.13-0.16,0.2
		l-0.16,0.18c-0.03,0.03-0.05,0.06-0.08,0.09l-0.1,0.09c-0.07,0.06-0.13,0.13-0.19,0.18C16.53,18.36,16.49,18.41,16.4,18.48z"/>
</g>
<g id="Icone">
	<g id="roteiros">
		<path class="st1" d="M10.31,0.5v14.53H0.53V0.5H10.31 M10.81,0H0.03v15.53h10.78V0z"/>
		<g>
			<defs>
				<rect id="SVGID_1_" x="0.03" y="2.53" width="10.78" height="12.99"/>
			</defs>
			<clipPath id="SVGID_2_">
				<use xlink:href="#SVGID_1_"  style="overflow:visible;"/>
			</clipPath>
			<g class="st2">
				<polygon class="st3" points="-4.45,15.29 0.03,15.29 0.03,9.11 				"/>
				<polygon class="st3" points="15.24,15.29 10.81,9.38 10.81,15.29 				"/>
				<path class="st4" d="M8.23,10.64C7.99,9.77,7.21,9.17,6.32,9.16c-0.71,0.01-1.36,0.39-1.71,1l1.96,2.71L8.23,10.64z"/>
				<polygon class="st5" points="0.03,9.11 0.03,15.29 5.07,15.29 7.99,15.29 1.77,6.7 				"/>
				<polygon class="st5" points="7.03,12.68 8.92,15.29 10.81,15.29 10.81,9.38 10.16,8.5 				"/>
			</g>
		</g>
	</g>
</g>
</svg>
