<?xml version="1.0" encoding="utf-8"?>
<!-- Generator: Adobe Illustrator 24.0.2, SVG Export Plug-In . SVG Version: 6.00 Build 0)  -->
<svg version="1.1" id="Layer_1" xmlns="http://www.w3.org/2000/svg" xmlns:xlink="http://www.w3.org/1999/xlink" x="0px" y="0px"
	 viewBox="0 0 143.64 45.9" style="enable-background:new 0 0 143.64 45.9;" xml:space="preserve">
<style type="text/css">
	.st0{fill:#D8BA2C;}
</style>
<g id="Group_19" transform="translate(-1035.933 -676.122)">
	<g id="Group_18" transform="translate(1035.933 676.121)">
		<g id="Group_17">
			<path id="Path_387" class="st0" d="M30.23,44.47c-0.28,0.08-0.56,0.13-0.84,0.16c-2.44,0.01-4.88-0.06-7.31,0.04
				c-1.01,0.04-1.45-0.34-1.83-1.18c-1.76-3.96-3.54-7.9-5.34-11.84c-1.5-3.28-3.04-6.55-4.55-9.83C8.66,18.13,7,14.42,5.31,10.73
				c-1.37-3-2.78-5.98-4.14-8.99C1.12,1.64,1.31,1.28,1.39,1.28C4,1.3,6.63,1.14,9.21,1.45c2.51,0.3,4.33,1.91,5.42,4.21
				c1.51,3.16,2.97,6.35,4.45,9.52c1.38,2.94,2.77,5.88,4.15,8.82c0.96,2.06,1.91,4.13,2.88,6.24c1.02-2.06,2.03-4.06,3.01-6.08
				c1.47-2.99,2.97-5.96,4.36-8.99c1.24-2.69,2.69-5.22,4.79-7.33c3.22-3.32,7.42-5.52,11.99-6.27c3.62-0.63,7.35-0.34,10.83,0.86
				c3.67,1.26,6.96,3.45,9.53,6.37c0.92-0.85,1.8-1.76,2.77-2.55c1.82-1.54,3.92-2.74,6.17-3.53c2.7-0.98,5.56-1.47,8.43-1.44
				c4.8,0.14,9.42,1.88,13.13,4.94c3.25,2.54,5.66,6,6.92,9.92c0.64,2.07,1.01,4.2,1.11,6.37c0.19,3.96,1.37,7.35,4.63,9.77
				c5.02,3.78,12.16,2.77,15.93-2.25c0.9-1.2,1.56-2.56,1.93-4.01c1.71-6.26-2.67-13.02-9.09-14.04c-4.65-0.8-9.32,1.36-11.72,5.42
				c-0.1,0.16-0.21,0.3-0.4,0.57c-0.32-0.99-0.57-1.86-0.87-2.72c-0.91-2.57-2.26-4.96-3.99-7.06c-0.13-0.28-0.1-0.61,0.07-0.87
				c2.37-2.36,5.31-4.08,8.53-5c7.39-2.07,14.22-1.02,20.24,3.96c1.26,1.04,2.6,2.09,3.56,3.39c2.03,2.72,3.42,5.87,4.06,9.2
				c1.35,7.23-0.43,13.64-5.35,19.11c-3.25,3.7-7.72,6.11-12.59,6.8c-7.39,1.06-13.85-1.02-19.15-6.4
				c-3.64-3.69-5.56-8.18-6.13-13.31c-0.27-2.41-0.23-4.89-1.49-7.12c-2.08-3.68-5.14-5.83-9.39-6.16
				c-4.86-0.33-9.37,2.55-11.13,7.09c-0.55,1.56-0.85,3.19-0.88,4.84c-0.13,3.77-0.04,7.55-0.04,11.33c0,2.91-0.09,5.83,0.04,8.74
				c0.06,1.29-0.57,1.23-1.39,1.12c-3.33-0.48-6.02-2.08-7.64-5.02c-0.83-1.5-1.32-3.15-1.44-4.86c-0.21-3.88-0.07-7.78-0.07-11.67
				c0.04-4.73-2.79-9-7.16-10.81c-5.45-2.29-11.73,0.06-14.34,5.37c-1.94,4.03-3.83,8.09-5.73,12.14
				c-2.21,4.71-4.39,9.43-6.63,14.12c-0.14,0.29-0.75,0.34-1.14,0.51L30.23,44.47z"/>
		</g>
	</g>
</g>
</svg>
